<?xml version="1.0" encoding="UTF-8" standalone="no"?>

<!-- Created with PainterSVG V3.92 -->

<svg  xmlns="http://www.w3.org/2000/svg" xmlns:xlink="http://www.w3.org/1999/xlink" xmlns:psvg="http://www.paintersvg.com/namespace.html" id="svg"  width="559.369" height="793.6992" viewBox="0 0 559.369 793.6992">
<defs></defs>
<g psvg:layer="layer1">
<g transform="matrix(1,0,0,1,-106.7437,200.9512)">
<path id="path1" d=" M 218,-85.6431 516.3607,16.2226 457.9187,139.631" style="fill:none;stroke:#000000;stroke-width:1;stroke-opacity:1;stroke-linecap:butt;stroke-miterlimit:4;stroke-dashoffset:0;"/>
<path d=" M 218,-85.6431 516.3607,16.2226 457.9187,139.631" style="fill:#1F1C0D;fill-opacity:1;stroke:none;" transform="matrix(0.895,0,0,0.895,45.9496,1.6455)"/>
<path d=" M 218,-85.6431 516.3607,16.2226 457.9187,139.631" style="fill:#3E391B;fill-opacity:1;stroke:none;" transform="matrix(0.79,0,0,0.79,91.8991,3.2909)"/>
<path d=" M 218,-85.6431 516.3607,16.2226 457.9187,139.631" style="fill:#5E5528;fill-opacity:1;stroke:none;" transform="matrix(0.685,0,0,0.685,137.8486,4.9364)"/>
<path d=" M 218,-85.6431 516.3607,16.2226 457.9187,139.631" style="fill:#7D7236;fill-opacity:1;stroke:none;" transform="matrix(0.58,0,0,0.58,0.7982,6.5818)"/>
<path d=" M 218,-85.6431 516.3607,16.2226 457.9187,139.631" style="fill:#9C8E44;fill-opacity:1;stroke:none;" transform="matrix(0.475,0,0,0.475,229.7477,8.2273)"/>
<path d=" M 218,-85.6431 516.3607,16.2226 457.9187,139.631" style="fill:#BCAB51;fill-opacity:1;stroke:none;" transform="matrix(0.37,0,0,0.37,275.6972,9.8727)"/>
<path d=" M 218,-85.6431 516.3607,16.2226 457.9187,139.631" style="fill:#DBC75F;fill-opacity:1;stroke:none;" transform="matrix(0.265,0,0,0.265,321.6468,11.5182)"/>
<path d=" M 218,-85.6431 500,16.2226 457.9187,139.631" style="fill:#FBE46D;fill-opacity:1;stroke:none;" transform="matrix(0.16,0,0,0.16,367.5963,13.1637)"/>
</g>
</g>
<g psvg:layer="layer2">
</g>
</svg>
