<?xml version="1.0" encoding="UTF-8" standalone="no"?>

<!-- Created with PainterSVG V3.92 -->

<svg  xmlns="http://www.w3.org/2000/svg" xmlns:xlink="http://www.w3.org/1999/xlink" xmlns:psvg="http://www.paintersvg.com/namespace.html" id="svg"  width="559.369" height="793.6992" viewBox="0 0 559.369 793.6992">
<defs></defs>
<g psvg:layer="grid-layer">
<grid rows="5" columns="5" id="grid26">
<path id="path1" row="0" col="0" d=" M -0,0 66.3859,0 66.3859,66.3859 -0,66.3859 -0,0 Z" style="fill:none;stroke:#000000;stroke-width:2;stroke-opacity:1;stroke-linecap:butt;stroke-miterlimit:4;stroke-dashoffset:0;"/>
<path id="path2" row="0" col="1" d=" M 66.3859,0 132.7719,0 132.7719,66.3859 66.3859,66.3859 66.3859,0 Z" style="fill:none;stroke:#000000;stroke-width:2;stroke-opacity:1;stroke-linecap:butt;stroke-miterlimit:4;stroke-dashoffset:0;"/>
<path id="path3" row="0" col="2" d=" M 132.7719,0 199.1578,0 199.1578,66.3859 132.7719,66.3859 132.7719,0 Z" style="fill:none;stroke:#000000;stroke-width:2;stroke-opacity:1;stroke-linecap:butt;stroke-miterlimit:4;stroke-dashoffset:0;"/>
<path id="path4" row="0" col="3" d=" M 199.1578,0 265.5438,0 265.5438,66.3859 199.1578,66.3859 199.1578,0 Z" style="fill:none;stroke:#000000;stroke-width:2;stroke-opacity:1;stroke-linecap:butt;stroke-miterlimit:4;stroke-dashoffset:0;"/>
<path id="path5" row="0" col="4" d=" M 265.5438,0 331.9297,0 331.9297,66.3859 265.5438,66.3859 265.5438,0 Z" style="fill:none;stroke:#000000;stroke-width:2;stroke-opacity:1;stroke-linecap:butt;stroke-miterlimit:4;stroke-dashoffset:0;"/>
<path id="path6" row="1" col="0" d=" M -0,66.3859 66.3859,66.3859 66.3859,132.7718 -0,132.7718 -0,66.3859 Z" style="fill:none;stroke:#000000;stroke-width:2;stroke-opacity:1;stroke-linecap:butt;stroke-miterlimit:4;stroke-dashoffset:0;"/>
<path id="path7" row="1" col="1" d=" M 66.3859,66.3859 132.7719,66.3859 132.7719,132.7718 66.3859,132.7718 66.3859,66.3859 Z" style="fill:none;stroke:#000000;stroke-width:2;stroke-opacity:1;stroke-linecap:butt;stroke-miterlimit:4;stroke-dashoffset:0;"/>
<path id="path8" row="1" col="2" d=" M 132.7719,66.3859 199.1578,66.3859 199.1578,132.7718 132.7719,132.7718 132.7719,66.3859 Z" style="fill:none;stroke:#000000;stroke-width:2;stroke-opacity:1;stroke-linecap:butt;stroke-miterlimit:4;stroke-dashoffset:0;"/>
<path id="path9" row="1" col="3" d=" M 199.1578,66.3859 265.5438,66.3859 265.5438,132.7718 199.1578,132.7718 199.1578,66.3859 Z" style="fill:none;stroke:#000000;stroke-width:2;stroke-opacity:1;stroke-linecap:butt;stroke-miterlimit:4;stroke-dashoffset:0;"/>
<path id="path10" row="1" col="4" d=" M 265.5438,66.3859 331.9297,66.3859 331.9297,132.7718 265.5438,132.7718 265.5438,66.3859 Z" style="fill:none;stroke:#000000;stroke-width:2;stroke-opacity:1;stroke-linecap:butt;stroke-miterlimit:4;stroke-dashoffset:0;"/>
<path id="path11" row="2" col="0" d=" M -0,132.7718 66.3859,132.7718 66.3859,199.1578 -0,199.1578 -0,132.7718 Z" style="fill:none;stroke:#000000;stroke-width:2;stroke-opacity:1;stroke-linecap:butt;stroke-miterlimit:4;stroke-dashoffset:0;"/>
<path id="path12" row="2" col="1" d=" M 66.3859,132.7718 132.7719,132.7718 132.7719,199.1578 66.3859,199.1578 66.3859,132.7718 Z" style="fill:none;stroke:#000000;stroke-width:2;stroke-opacity:1;stroke-linecap:butt;stroke-miterlimit:4;stroke-dashoffset:0;"/>
<path id="path13" row="2" col="2" d=" M 132.7719,132.7718 199.1578,132.7718 199.1578,199.1578 132.7719,199.1578 132.7719,132.7718 Z" style="fill:none;stroke:#000000;stroke-width:2;stroke-opacity:1;stroke-linecap:butt;stroke-miterlimit:4;stroke-dashoffset:0;"/>
<path id="path14" row="2" col="3" d=" M 199.1578,132.7718 265.5438,132.7718 265.5438,199.1578 199.1578,199.1578 199.1578,132.7718 Z" style="fill:none;stroke:#000000;stroke-width:2;stroke-opacity:1;stroke-linecap:butt;stroke-miterlimit:4;stroke-dashoffset:0;"/>
<path id="path15" row="2" col="4" d=" M 265.5438,132.7718 331.9297,132.7718 331.9297,199.1578 265.5438,199.1578 265.5438,132.7718 Z" style="fill:none;stroke:#000000;stroke-width:2;stroke-opacity:1;stroke-linecap:butt;stroke-miterlimit:4;stroke-dashoffset:0;"/>
<path id="path16" row="3" col="0" d=" M -0,199.1578 66.3859,199.1578 66.3859,265.5437 -0,265.5437 -0,199.1578 Z" style="fill:none;stroke:#000000;stroke-width:2;stroke-opacity:1;stroke-linecap:butt;stroke-miterlimit:4;stroke-dashoffset:0;"/>
<path id="path17" row="3" col="1" d=" M 66.3859,199.1578 132.7719,199.1578 132.7719,265.5437 66.3859,265.5437 66.3859,199.1578 Z" style="fill:none;stroke:#000000;stroke-width:2;stroke-opacity:1;stroke-linecap:butt;stroke-miterlimit:4;stroke-dashoffset:0;"/>
<path id="path18" row="3" col="2" d=" M 132.7719,199.1578 199.1578,199.1578 199.1578,265.5437 132.7719,265.5437 132.7719,199.1578 Z" style="fill:none;stroke:#000000;stroke-width:2;stroke-opacity:1;stroke-linecap:butt;stroke-miterlimit:4;stroke-dashoffset:0;"/>
<path id="path19" row="3" col="3" d=" M 199.1578,199.1578 265.5438,199.1578 265.5438,265.5437 199.1578,265.5437 199.1578,199.1578 Z" style="fill:none;stroke:#000000;stroke-width:2;stroke-opacity:1;stroke-linecap:butt;stroke-miterlimit:4;stroke-dashoffset:0;"/>
<path id="path20" row="3" col="4" d=" M 265.5438,199.1578 331.9297,199.1578 331.9297,265.5437 265.5438,265.5437 265.5438,199.1578 Z" style="fill:none;stroke:#000000;stroke-width:2;stroke-opacity:1;stroke-linecap:butt;stroke-miterlimit:4;stroke-dashoffset:0;"/>
<path id="path21" row="4" col="0" d=" M -0,265.5437 66.3859,265.5437 66.3859,331.9297 -0,331.9297 -0,265.5437 Z" style="fill:none;stroke:#000000;stroke-width:2;stroke-opacity:1;stroke-linecap:butt;stroke-miterlimit:4;stroke-dashoffset:0;"/>
<path id="path22" row="4" col="1" d=" M 66.3859,265.5437 132.7719,265.5437 132.7719,331.9297 66.3859,331.9297 66.3859,265.5437 Z" style="fill:none;stroke:#000000;stroke-width:2;stroke-opacity:1;stroke-linecap:butt;stroke-miterlimit:4;stroke-dashoffset:0;"/>
<path id="path23" row="4" col="2" d=" M 132.7719,265.5437 199.1578,265.5437 199.1578,331.9297 132.7719,331.9297 132.7719,265.5437 Z" style="fill:none;stroke:#000000;stroke-width:2;stroke-opacity:1;stroke-linecap:butt;stroke-miterlimit:4;stroke-dashoffset:0;"/>
<path id="path24" row="4" col="3" d=" M 199.1578,265.5437 265.5438,265.5437 265.5438,331.9297 199.1578,331.9297 199.1578,265.5437 Z" style="fill:none;stroke:#000000;stroke-width:2;stroke-opacity:1;stroke-linecap:butt;stroke-miterlimit:4;stroke-dashoffset:0;"/>
<path id="path25" row="4" col="4" d=" M 265.5438,265.5437 331.9297,265.5437 331.9297,331.9297 265.5438,331.9297 265.5438,265.5437 Z" style="fill:none;stroke:#000000;stroke-width:2;stroke-opacity:1;stroke-linecap:butt;stroke-miterlimit:4;stroke-dashoffset:0;"/>
</grid>
<path id="path27" d=" M 215.1639,583.6641 C 253.3866,384.8567 442.5615,359.9288 518.176,491.9542 593.7905,623.9796 490.7553,679.9903 434.9446,690.7616 379.1339,701.5329 289.1166,682.7601 292.8557,590.7424 Q 305.7351,436.8667 440.3456,472.5659 C 575.787,535.3471 503.2192,703.6871 382.4576,639.3671" style="fill:none;stroke:#000000;stroke-width:2;stroke-opacity:1;stroke-linecap:butt;stroke-miterlimit:4;stroke-dashoffset:0;"/>
</g>
</svg>
