<?xml version="1.0" encoding="UTF-8" standalone="no"?>

<!-- Created with PainterSVG V3.92 -->

<svg xmlns="http://www.w3.org/2000/svg" xmlns:xlink="http://www.w3.org/1999/xlink" xmlns:psvg="http://www.paintersvg.com/namespace.html" id="svg" width="512" height="512" viewBox="0 0 512 512">
  <defs>
    <linearGradient id="lineargradient5" x1="-13.9658" y1="-63.8031" x2="-35.293" y2="-77.8142" gradientUnits="userSpaceOnUse" spreadMethod="pad">
      <stop offset="0" style="stop-color:#e5485;stop-opacity:1" />
      <stop offset="1" style="stop-color:#1d6ebe;stop-opacity:1" />
    </linearGradient>
    <linearGradient id="lineargradient6" x1="154.1203" y1="3.0566" x2="46.3414" y2="93.997" gradientUnits="userSpaceOnUse" spreadMethod="pad">
      <stop offset="0" style="stop-color:#3f1e9f;stop-opacity:1" />
      <stop offset="1" style="stop-color:#166cb2;stop-opacity:1" />
    </linearGradient>
    <linearGradient id="lineargradient7" x1="349.8473" y1="363.7817" x2="114.375" y2="91.8817" gradientUnits="userSpaceOnUse" spreadMethod="pad">
      <stop offset="0" style="stop-color:#892020;stop-opacity:1" />
      <stop offset="1" style="stop-color:#2d2d92;stop-opacity:1" />
    </linearGradient>
    <linearGradient id="lineargradient5" x1="-13.9658" y1="-63.8031" x2="-35.293" y2="-77.8142" gradientUnits="userSpaceOnUse" spreadMethod="pad">
      <stop offset="0" style="stop-color:#e5485;stop-opacity:1" />
      <stop offset="1" style="stop-color:#1d6ebe;stop-opacity:1" />
    </linearGradient>
    <linearGradient id="lineargradient6" x1="154.1203" y1="3.0566" x2="46.3414" y2="93.997" gradientUnits="userSpaceOnUse" spreadMethod="pad">
      <stop offset="0" style="stop-color:#3f1e9f;stop-opacity:1" />
      <stop offset="1" style="stop-color:#166cb2;stop-opacity:1" />
    </linearGradient>
  </defs>
  <g psvg:layer="layer2">
    <g id="group7">
      <path id="path4" d=" M 160,60 123.75,120 51.25,120 15,60 51.25,0 123.75,0 160,60 Z" style="fill:url(#lineargradient4);fill-opacity:1;stroke:url(#lineargradient3);stroke-width:1;stroke-opacity:1;stroke-linecap:butt;stroke-miterlimit:4;stroke-dashoffset:0;" transform="matrix(1,0,0,1,0,0)" />
      <g transform="matrix(-0.4898,0,0,-0.4754,219.2156,155.8133)">
        <path d=" M 156.225,207.0336 330.3071,189.5074 Q 399.2386,188.7667 442.9991,154.4552 402.4723,183.8598 307.9973,248.6297 L 207.5269,154.4552 94.8349,189.5074 156.225,207.0336 Z" style="fill:url(#lineargradient7);fill-opacity:1;stroke:url(#lineargradient5);stroke-width:1;stroke-opacity:1;stroke-linecap:butt;stroke-miterlimit:4;stroke-dashoffset:0;" />
      </g>
    </g>
  </g>
</svg>