<?xml version="1.0" encoding="UTF-8" standalone="no"?>
<svg
   xmlns:dc="http://purl.org/dc/elements/1.1/"
   xmlns:cc="http://creativecommons.org/ns#"
   xmlns:rdf="http://www.w3.org/1999/02/22-rdf-syntax-ns#"
   xmlns:svg="http://www.w3.org/2000/svg"
   xmlns="http://www.w3.org/2000/svg"
   id="svg1257"
   version="1.1"
   height="828"
   width="720">
  <metadata
     id="metadata1263">
    <rdf:RDF>
      <cc:Work
         rdf:about="">
        <dc:format>image/svg+xml</dc:format>
        <dc:type
           rdf:resource="http://purl.org/dc/dcmitype/StillImage" />
        <dc:title></dc:title>
      </cc:Work>
    </rdf:RDF>
  </metadata>
  <defs
     id="defs1261" />
  <path
     id="rect1849"
     d="m 363.00984,0 -32.50245,32.49163 26.31302,26.30427 14.1315,14.12679 221.158,221.08439 32.50246,-32.49165 -221.158,-221.08437 -14.1315,-14.1268 z m -46.63395,46.61843 -32.50245,32.49163 26.31302,26.30427 14.1315,14.12679 188.65555,188.59275 -14.1315,14.1268 -93.26791,-93.23687 -32.50246,32.49163 -12.01177,12.00779 -32.50245,32.49163 32.50245,32.49163 48.75368,48.73745 32.50245,-32.49163 -48.75368,-48.73745 12.01178,-12.00778 60.76545,60.74523 -12.01178,12.00777 -32.50245,32.49163 32.50245,32.49164 32.50246,-32.49164 12.01178,-12.00777 32.50245,-32.49163 14.1315,-14.1268 32.50245,-32.49163 L 356.82041,87.04949 342.68891,72.9227 Z M 594.22964,341.33184 561.72718,373.82347 687.49755,499.55197 720,467.06034 Z m -324.4877,-248.09498 -32.50246,32.49163 32.50246,32.49164 32.50245,-32.49164 z m 46.63395,46.61843 -32.50245,32.49163 32.50245,32.49164 32.50247,-32.49163 z m 46.63396,46.61844 -137.78214,137.73627 -14.1315,-14.1268 91.14819,-91.11784 -32.50246,-32.49164 -14.1315,-14.1268 -32.50246,-32.49163 -123.650638,123.60948 32.502458,32.49163 91.14818,-91.11784 14.1315,14.12679 -91.14818,91.11785 32.50246,32.49163 14.1315,14.1268 32.50245,32.49163 170.28459,-170.2279 z m 184.58584,201.47654 -32.50245,32.49164 93.2679,93.23685 -14.13149,14.1268 -93.26792,-93.23686 -32.50245,32.49164 93.2679,93.23685 -142.02158,141.97431 32.50245,32.49164 142.0216,-141.97431 79.1364,-79.11007 -32.50246,-32.49163 z m -231.05005,-69.92765 -81.25614,81.22908 78.42983,78.40373 48.75369,-48.73745 14.1315,14.1268 -48.75368,48.73745 33.20903,33.19797 81.25613,-81.22908 -33.20903,-33.19798 -14.1315,-14.12679 z m 137.78213,163.16451 -32.50245,32.49163 45.92738,45.91209 -14.13149,14.1268 -45.92738,-45.91209 -32.50247,32.49163 45.92739,45.91209 -14.1315,14.12681 -45.92738,-45.91209 -32.50245,32.49163 45.92738,45.91209 -14.13151,14.12679 -45.92738,-45.91209 -32.50245,32.49164 93.2679,93.23686 -48.75367,48.73745 32.50245,32.49163 81.25614,-81.22908 -47.34054,-47.32477 134.24927,-134.20457 5.6526,-5.65073 z m -140.60844,-101.0066 16.25123,16.24582 -16.25123,16.24581 -16.25122,-16.24581 z m -187.94897,-40.96771 -32.50245,32.49163 32.50245,32.49163 32.50246,-32.49163 z m 48.75369,48.73745 -32.50246,32.49164 32.50246,32.49163 32.50245,-32.49163 z m 46.63396,46.61843 -46.63396,46.61843 -32.50246,32.49163 -14.1315,14.1268 -14.1315,-14.1268 16.25123,-16.24581 32.50245,-32.49163 L 130.00982,432.44968 113.75859,416.20387 81.256134,383.71223 48.75368,416.20387 0,464.94131 l 32.502456,32.49164 16.251226,16.24581 32.502454,32.49164 14.131501,14.12679 32.502453,32.49164 46.63396,-46.61843 93.2679,93.23686 32.50247,-32.49163 -0.70658,-0.70635 46.63395,-46.61843 -45.92737,-45.91209 -32.50247,-32.49163 -32.50245,32.49163 -14.13149,14.1268 -14.13151,-14.1268 46.63396,-46.61842 z m 46.63394,111.6017 13.42493,13.42045 -14.13149,14.1268 -13.42493,-13.42046 z M 81.256136,448.6955 97.507363,464.94132 81.256136,481.18713 65.004909,464.94132 Z m 93.267914,125.7285 -32.50246,32.49163 32.50246,32.49163 32.50245,-32.49163 z m 46.63396,46.61842 -32.50247,32.49164 32.50247,32.49163 32.50245,-32.49163 z m 46.63394,46.61843 -32.50245,32.49163 78.42983,78.40373 32.50246,-32.49164 z"
     style="opacity:1;fill:#000000;fill-opacity:1;fill-rule:evenodd;stroke:none;stroke-width:7.51299286;stroke-miterlimit:4;stroke-dasharray:none;stroke-opacity:1" />
</svg>
