<?xml version="1.0" encoding="UTF-8" standalone="no"?>

<svg xmlns="http://www.w3.org/2000/svg" xmlns:xlink="http://www.w3.org/1999/xlink" id="svg" width="60" height="60" viewBox="0 0 60 60">
  <g>
    <path id="path6" d=" M 30,0 32.3465,15.1847 39.2705,1.4683 36.8099,16.6349 47.6336,5.7295 40.6066,19.3934 54.2705,12.3664 43.3651,23.1901 58.5317,20.7295 44.8153,27.6535 60,30 44.8153,32.3465 58.5317,39.2705 43.3651,36.8099 54.2705,47.6336 40.6066,40.6066 47.6336,54.2705 36.8099,43.3651 39.2705,58.5317 32.3465,44.8153 30,60 27.6535,44.8153 20.7295,58.5317 23.1901,43.3651 12.3664,54.2705 19.3934,40.6066 5.7295,47.6336 16.6349,36.8099 1.4683,39.2705 15.1847,32.3465 0,30 15.1847,27.6535 1.4683,20.7295 16.6349,23.1901 5.7295,12.3664 19.3934,19.3934 12.3664,5.7295 23.1901,16.6349 20.7295,1.4683 27.6535,15.1847 30,0 Z" style="fill:#000000;fill-opacity:1;stroke:#000000;stroke-width:0;stroke-opacity:1;stroke-linecap:butt;stroke-miterlimit:4;stroke-dashoffset:0;" />
  </g>
</svg>