<svg width="100" height="100" xmlns="http://www.w3.org/2000/svg" xmlns:xlink="http://www.w3.org/1999/xlink" xml:space="preserve" overflow="hidden">
  <defs>
    <clipPath id="clip0">
      <rect x="432" y="222" width="100" height="100" />
    </clipPath>
  </defs>
  <g clip-path="url(#clip1)" transform="translate(-432 -222)">
    <path d="M508.391 252.846C506.685 238.275 493.491 227.846 478.921 229.551 465.571 231.113 455.492 242.402 455.446 255.843L467.946 255.843C467.946 248.079 474.239 241.785 482.003 241.785 489.766 241.784 496.06 248.078 496.06 255.842 496.061 260.682 493.57 265.182 489.469 267.753 481.004 272.932 475.816 282.117 475.75 292.04L488.25 292.04C488.33 286.418 491.307 281.235 496.123 278.334 504.794 272.922 509.57 262.999 508.391 252.846Z" stroke="#3C3C3C" stroke-width="1.33333" fill="#EF8600" />
    <path d="M487.603 301.66 487.603 301.66C484.624 298.676 479.79 298.67 476.805 301.649 476.801 301.653 476.797 301.657 476.794 301.66 476.095 302.362 475.539 303.191 475.156 304.104 474.758 305.047 474.555 306.061 474.559 307.084 474.554 308.104 474.758 309.114 475.158 310.051 475.937 311.883 477.401 313.339 479.237 314.108 480.18 314.507 481.193 314.711 482.217 314.708 483.236 314.713 484.246 314.51 485.183 314.109 487.007 313.331 488.459 311.878 489.237 310.054 489.638 309.117 489.842 308.107 489.837 307.087 489.841 306.064 489.638 305.05 489.24 304.107 488.857 303.194 488.301 302.363 487.603 301.66Z" stroke="#3C3C3C" stroke-width="1.33333" fill="#EF8600" />
  </g>
</svg>
