<?xml version="1.0" encoding="UTF-8" standalone="no"?>

<!-- Created with PainterSVG V3.92 -->

<svg id="svg" width="300" height="300" viewBox="0 0 300 300" xmlns="http://www.w3.org/2000/svg" xmlns:xlink="http://www.w3.org/1999/xlink">
  <defs></defs>
  <g id="group19" transform="matrix(1,0,0,1,0.9701,0.7076)">
    <path id="path18" d=" M 256.985,50.0163 C 143.6768,50.0163 50.9701,142.9376 50.9701,256.5081 50.9701,370.0787 143.6768,463 256.985,463 370.2932,463 463,370.0787 463,256.5081 463,142.9376 370.2932,50.0163 256.985,50.0163 Z" style="fill:#0050A0;fill-opacity:1;stroke:#000000;stroke-width:3;stroke-opacity:1;stroke-linecap:butt;stroke-miterlimit:4;stroke-dashoffset:0;" transform="matrix(1,0,0,1,0,0)" />
    <g id="group17" transform="matrix(1,0,0,1,0.985,0.5082)">
      <path id="path16" d=" M 90.2425,165.4607 C 73.7425,165.4607 60.2425,178.9607 60.2425,195.4607 60.2425,211.9607 73.7425,225.4607 90.2425,225.4607 106.7425,225.4607 120.2425,211.9607 120.2425,195.4607 120.2425,178.9607 106.7425,165.4607 90.2425,165.4607 Z" style="fill:#FFFFFF;fill-opacity:1;stroke:#000000;stroke-width:3;stroke-opacity:1;stroke-linecap:butt;stroke-miterlimit:4;stroke-dashoffset:0;" />
      <g transform="matrix(0.5,0.866,-0.866,0.5,349.7025,-93.7025)">
        <path d=" M 90.2425,165.4607 C 73.7425,165.4607 60.2425,178.9607 60.2425,195.4607 60.2425,211.9607 73.7425,225.4607 90.2425,225.4607 106.7425,225.4607 120.2425,211.9607 120.2425,195.4607 120.2425,178.9607 106.7425,165.4607 90.2425,165.4607 Z" style="fill:#FFFFFF;fill-opacity:1;stroke:#000000;stroke-width:3;stroke-opacity:1;stroke-linecap:butt;stroke-miterlimit:4;stroke-dashoffset:0;" />
      </g>
      <g transform="matrix(-0.5,0.866,-0.866,-0.5,605.7025,162.2975)">
        <path d=" M 90.2425,165.4607 C 73.7425,165.4607 60.2425,178.9607 60.2425,195.4607 60.2425,211.9607 73.7425,225.4607 90.2425,225.4607 106.7425,225.4607 120.2425,211.9607 120.2425,195.4607 120.2425,178.9607 106.7425,165.4607 90.2425,165.4607 Z" style="fill:#FFFFFF;fill-opacity:1;stroke:#000000;stroke-width:3;stroke-opacity:1;stroke-linecap:butt;stroke-miterlimit:4;stroke-dashoffset:0;" />
      </g>
      <g transform="matrix(-1,0,0,-1,0,0)">
        <path d=" M 90.2425,165.4607 C 73.7425,165.4607 60.2425,178.9607 60.2425,195.4607 60.2425,211.9607 73.7425,225.4607 90.2425,225.4607 106.7425,225.4607 120.2425,211.9607 120.2425,195.4607 120.2425,178.9607 106.7425,165.4607 90.2425,165.4607 Z" style="fill:#FFFFFF;fill-opacity:1;stroke:#000000;stroke-width:3;stroke-opacity:1;stroke-linecap:butt;stroke-miterlimit:4;stroke-dashoffset:0;" />
      </g>
      <g transform="matrix(-0.5,-0.866,0.866,-0.5,162.2975,605.7025)">
        <path d=" M 90.2425,165.4607 C 73.7425,165.4607 60.2425,178.9607 60.2425,195.4607 60.2425,211.9607 73.7425,225.4607 90.2425,225.4607 106.7425,225.4607 120.2425,211.9607 120.2425,195.4607 120.2425,178.9607 106.7425,165.4607 90.2425,165.4607 Z" style="fill:#FFFFFF;fill-opacity:1;stroke:#000000;stroke-width:3;stroke-opacity:1;stroke-linecap:butt;stroke-miterlimit:4;stroke-dashoffset:0;" />
      </g>
      <g transform="matrix(0.5,-0.866,0.866,0.5,-93.7025,349.7025)">
        <path d=" M 90.2425,165.4607 C 73.7425,165.4607 60.2425,178.9607 60.2425,195.4607 60.2425,211.9607 73.7425,225.4607 90.2425,225.4607 106.7425,225.4607 120.2425,211.9607 120.2425,195.4607 120.2425,178.9607 106.7425,165.4607 90.2425,165.4607 Z" style="fill:#FFFFFF;fill-opacity:1;stroke:#000000;stroke-width:3;stroke-opacity:1;stroke-linecap:butt;stroke-miterlimit:4;stroke-dashoffset:0;" />
      </g>
    </g>
  </g>
</svg>
